<svg xmlns="http://www.w3.org/2000/svg" width="1600" height="900" viewBox="0 0 1600 900">
  <defs><linearGradient id="fg" x1="0" y1="0" x2="0" y2="1">
    <stop offset="0%" stop-color="#1f252b"/><stop offset="100%" stop-color="#010408"/>
  </linearGradient></defs>
  <rect width="1600" height="900" fill="url(#fg)"/>
  <rect x="0" y="841" width="1600" height="80" fill="#3de1ff" opacity="0.10"/>
  <circle cx="0" cy="881" r="1" fill="#3de1ff" opacity="0.15"/><circle cx="138" cy="292" r="2" fill="#3de1ff" opacity="0.27"/><circle cx="275" cy="603" r="3" fill="#3de1ff" opacity="0.39"/><circle cx="413" cy="14" r="4" fill="#3de1ff" opacity="0.51"/><circle cx="550" cy="325" r="1" fill="#3de1ff" opacity="0.63"/><circle cx="688" cy="636" r="2" fill="#3de1ff" opacity="0.15"/><circle cx="825" cy="47" r="3" fill="#3de1ff" opacity="0.27"/><circle cx="963" cy="358" r="4" fill="#3de1ff" opacity="0.39"/><circle cx="1100" cy="669" r="1" fill="#3de1ff" opacity="0.51"/><circle cx="1238" cy="80" r="2" fill="#3de1ff" opacity="0.63"/><circle cx="1375" cy="391" r="3" fill="#3de1ff" opacity="0.15"/><circle cx="1513" cy="702" r="4" fill="#3de1ff" opacity="0.27"/><circle cx="50" cy="113" r="1" fill="#3de1ff" opacity="0.39"/><circle cx="188" cy="424" r="2" fill="#3de1ff" opacity="0.51"/><circle cx="325" cy="735" r="3" fill="#3de1ff" opacity="0.63"/><circle cx="463" cy="146" r="4" fill="#3de1ff" opacity="0.15"/><circle cx="600" cy="457" r="1" fill="#3de1ff" opacity="0.27"/><circle cx="738" cy="768" r="2" fill="#3de1ff" opacity="0.39"/><circle cx="875" cy="179" r="3" fill="#3de1ff" opacity="0.51"/><circle cx="1013" cy="490" r="4" fill="#3de1ff" opacity="0.63"/><circle cx="1150" cy="801" r="1" fill="#3de1ff" opacity="0.15"/><circle cx="1288" cy="212" r="2" fill="#3de1ff" opacity="0.27"/><circle cx="1425" cy="523" r="3" fill="#3de1ff" opacity="0.39"/><circle cx="1563" cy="834" r="4" fill="#3de1ff" opacity="0.51"/><circle cx="100" cy="245" r="1" fill="#3de1ff" opacity="0.63"/><circle cx="238" cy="556" r="2" fill="#3de1ff" opacity="0.15"/><circle cx="375" cy="867" r="3" fill="#3de1ff" opacity="0.27"/><circle cx="513" cy="278" r="4" fill="#3de1ff" opacity="0.39"/><circle cx="650" cy="589" r="1" fill="#3de1ff" opacity="0.51"/><circle cx="788" cy="900" r="2" fill="#3de1ff" opacity="0.63"/><circle cx="925" cy="311" r="3" fill="#3de1ff" opacity="0.15"/><circle cx="1063" cy="622" r="4" fill="#3de1ff" opacity="0.27"/><circle cx="1200" cy="33" r="1" fill="#3de1ff" opacity="0.39"/><circle cx="1338" cy="344" r="2" fill="#3de1ff" opacity="0.51"/><circle cx="1475" cy="655" r="3" fill="#3de1ff" opacity="0.63"/><circle cx="13" cy="66" r="4" fill="#3de1ff" opacity="0.15"/><circle cx="150" cy="377" r="1" fill="#3de1ff" opacity="0.27"/><circle cx="288" cy="688" r="2" fill="#3de1ff" opacity="0.39"/><circle cx="425" cy="99" r="3" fill="#3de1ff" opacity="0.51"/><circle cx="563" cy="410" r="4" fill="#3de1ff" opacity="0.63"/><circle cx="700" cy="721" r="1" fill="#3de1ff" opacity="0.15"/><circle cx="838" cy="132" r="2" fill="#3de1ff" opacity="0.27"/><circle cx="975" cy="443" r="3" fill="#3de1ff" opacity="0.39"/><circle cx="1113" cy="754" r="4" fill="#3de1ff" opacity="0.51"/><circle cx="1250" cy="165" r="1" fill="#3de1ff" opacity="0.63"/><circle cx="1388" cy="476" r="2" fill="#3de1ff" opacity="0.15"/><circle cx="1525" cy="787" r="3" fill="#3de1ff" opacity="0.27"/><circle cx="63" cy="198" r="4" fill="#3de1ff" opacity="0.39"/><circle cx="200" cy="509" r="1" fill="#3de1ff" opacity="0.51"/><circle cx="338" cy="820" r="2" fill="#3de1ff" opacity="0.63"/><circle cx="475" cy="231" r="3" fill="#3de1ff" opacity="0.15"/><circle cx="613" cy="542" r="4" fill="#3de1ff" opacity="0.27"/><circle cx="750" cy="853" r="1" fill="#3de1ff" opacity="0.39"/><circle cx="888" cy="264" r="2" fill="#3de1ff" opacity="0.51"/><circle cx="1025" cy="575" r="3" fill="#3de1ff" opacity="0.63"/><circle cx="1163" cy="886" r="4" fill="#3de1ff" opacity="0.15"/><circle cx="1300" cy="297" r="1" fill="#3de1ff" opacity="0.27"/><circle cx="1438" cy="608" r="2" fill="#3de1ff" opacity="0.39"/><circle cx="1575" cy="19" r="3" fill="#3de1ff" opacity="0.51"/><circle cx="113" cy="330" r="4" fill="#3de1ff" opacity="0.63"/>
  <text x="60" y="80" font-family="monospace" font-size="26" fill="#39e0ff" opacity="0.8">DEPTH 3719m</text>
</svg>