<svg xmlns="http://www.w3.org/2000/svg" width="1600" height="900" viewBox="0 0 1600 900">
  <defs><linearGradient id="fg" x1="0" y1="0" x2="0" y2="1">
    <stop offset="0%" stop-color="#223243"/><stop offset="100%" stop-color="#020d19"/>
  </linearGradient></defs>
  <rect width="1600" height="900" fill="url(#fg)"/>
  <rect x="0" y="592" width="1600" height="80" fill="#70e7fe" opacity="0.10"/>
  <circle cx="0" cy="632" r="1" fill="#70e7fe" opacity="0.15"/><circle cx="138" cy="43" r="2" fill="#70e7fe" opacity="0.27"/><circle cx="275" cy="354" r="3" fill="#70e7fe" opacity="0.39"/><circle cx="413" cy="665" r="4" fill="#70e7fe" opacity="0.51"/><circle cx="550" cy="76" r="1" fill="#70e7fe" opacity="0.63"/><circle cx="688" cy="387" r="2" fill="#70e7fe" opacity="0.15"/><circle cx="825" cy="698" r="3" fill="#70e7fe" opacity="0.27"/><circle cx="963" cy="109" r="4" fill="#70e7fe" opacity="0.39"/><circle cx="1100" cy="420" r="1" fill="#70e7fe" opacity="0.51"/><circle cx="1238" cy="731" r="2" fill="#70e7fe" opacity="0.63"/><circle cx="1375" cy="142" r="3" fill="#70e7fe" opacity="0.15"/><circle cx="1513" cy="453" r="4" fill="#70e7fe" opacity="0.27"/><circle cx="50" cy="764" r="1" fill="#70e7fe" opacity="0.39"/><circle cx="188" cy="175" r="2" fill="#70e7fe" opacity="0.51"/><circle cx="325" cy="486" r="3" fill="#70e7fe" opacity="0.63"/><circle cx="463" cy="797" r="4" fill="#70e7fe" opacity="0.15"/><circle cx="600" cy="208" r="1" fill="#70e7fe" opacity="0.27"/><circle cx="738" cy="519" r="2" fill="#70e7fe" opacity="0.39"/><circle cx="875" cy="830" r="3" fill="#70e7fe" opacity="0.51"/><circle cx="1013" cy="241" r="4" fill="#70e7fe" opacity="0.63"/><circle cx="1150" cy="552" r="1" fill="#70e7fe" opacity="0.15"/><circle cx="1288" cy="863" r="2" fill="#70e7fe" opacity="0.27"/><circle cx="1425" cy="274" r="3" fill="#70e7fe" opacity="0.39"/><circle cx="1563" cy="585" r="4" fill="#70e7fe" opacity="0.51"/><circle cx="100" cy="896" r="1" fill="#70e7fe" opacity="0.63"/><circle cx="238" cy="307" r="2" fill="#70e7fe" opacity="0.15"/><circle cx="375" cy="618" r="3" fill="#70e7fe" opacity="0.27"/><circle cx="513" cy="29" r="4" fill="#70e7fe" opacity="0.39"/><circle cx="650" cy="340" r="1" fill="#70e7fe" opacity="0.51"/><circle cx="788" cy="651" r="2" fill="#70e7fe" opacity="0.63"/><circle cx="925" cy="62" r="3" fill="#70e7fe" opacity="0.15"/><circle cx="1063" cy="373" r="4" fill="#70e7fe" opacity="0.27"/><circle cx="1200" cy="684" r="1" fill="#70e7fe" opacity="0.39"/><circle cx="1338" cy="95" r="2" fill="#70e7fe" opacity="0.51"/><circle cx="1475" cy="406" r="3" fill="#70e7fe" opacity="0.63"/><circle cx="13" cy="717" r="4" fill="#70e7fe" opacity="0.15"/><circle cx="150" cy="128" r="1" fill="#70e7fe" opacity="0.27"/><circle cx="288" cy="439" r="2" fill="#70e7fe" opacity="0.39"/><circle cx="425" cy="750" r="3" fill="#70e7fe" opacity="0.51"/><circle cx="563" cy="161" r="4" fill="#70e7fe" opacity="0.63"/><circle cx="700" cy="472" r="1" fill="#70e7fe" opacity="0.15"/><circle cx="838" cy="783" r="2" fill="#70e7fe" opacity="0.27"/><circle cx="975" cy="194" r="3" fill="#70e7fe" opacity="0.39"/><circle cx="1113" cy="505" r="4" fill="#70e7fe" opacity="0.51"/><circle cx="1250" cy="816" r="1" fill="#70e7fe" opacity="0.63"/><circle cx="1388" cy="227" r="2" fill="#70e7fe" opacity="0.15"/><circle cx="1525" cy="538" r="3" fill="#70e7fe" opacity="0.27"/><circle cx="63" cy="849" r="4" fill="#70e7fe" opacity="0.39"/><circle cx="200" cy="260" r="1" fill="#70e7fe" opacity="0.51"/><circle cx="338" cy="571" r="2" fill="#70e7fe" opacity="0.63"/><circle cx="475" cy="882" r="3" fill="#70e7fe" opacity="0.15"/><circle cx="613" cy="293" r="4" fill="#70e7fe" opacity="0.27"/><circle cx="750" cy="604" r="1" fill="#70e7fe" opacity="0.39"/><circle cx="888" cy="15" r="2" fill="#70e7fe" opacity="0.51"/><circle cx="1025" cy="326" r="3" fill="#70e7fe" opacity="0.63"/><circle cx="1163" cy="637" r="4" fill="#70e7fe" opacity="0.15"/><circle cx="1300" cy="48" r="1" fill="#70e7fe" opacity="0.27"/><circle cx="1438" cy="359" r="2" fill="#70e7fe" opacity="0.39"/><circle cx="1575" cy="670" r="3" fill="#70e7fe" opacity="0.51"/><circle cx="113" cy="81" r="4" fill="#70e7fe" opacity="0.63"/>
  <text x="60" y="80" font-family="monospace" font-size="26" fill="#39e0ff" opacity="0.8">DEPTH 2668m</text>
</svg>