<svg xmlns="http://www.w3.org/2000/svg" width="1600" height="900" viewBox="0 0 1600 900">
  <defs><linearGradient id="fg" x1="0" y1="0" x2="0" y2="1">
    <stop offset="0%" stop-color="#274463"/><stop offset="100%" stop-color="#051a2f"/>
  </linearGradient></defs>
  <rect width="1600" height="900" fill="url(#fg)"/>
  <rect x="0" y="439" width="1600" height="80" fill="#90ebfd" opacity="0.10"/>
  <circle cx="0" cy="479" r="1" fill="#90ebfd" opacity="0.15"/><circle cx="138" cy="790" r="2" fill="#90ebfd" opacity="0.27"/><circle cx="275" cy="201" r="3" fill="#90ebfd" opacity="0.39"/><circle cx="413" cy="512" r="4" fill="#90ebfd" opacity="0.51"/><circle cx="550" cy="823" r="1" fill="#90ebfd" opacity="0.63"/><circle cx="688" cy="234" r="2" fill="#90ebfd" opacity="0.15"/><circle cx="825" cy="545" r="3" fill="#90ebfd" opacity="0.27"/><circle cx="963" cy="856" r="4" fill="#90ebfd" opacity="0.39"/><circle cx="1100" cy="267" r="1" fill="#90ebfd" opacity="0.51"/><circle cx="1238" cy="578" r="2" fill="#90ebfd" opacity="0.63"/><circle cx="1375" cy="889" r="3" fill="#90ebfd" opacity="0.15"/><circle cx="1513" cy="300" r="4" fill="#90ebfd" opacity="0.27"/><circle cx="50" cy="611" r="1" fill="#90ebfd" opacity="0.39"/><circle cx="188" cy="22" r="2" fill="#90ebfd" opacity="0.51"/><circle cx="325" cy="333" r="3" fill="#90ebfd" opacity="0.63"/><circle cx="463" cy="644" r="4" fill="#90ebfd" opacity="0.15"/><circle cx="600" cy="55" r="1" fill="#90ebfd" opacity="0.27"/><circle cx="738" cy="366" r="2" fill="#90ebfd" opacity="0.39"/><circle cx="875" cy="677" r="3" fill="#90ebfd" opacity="0.51"/><circle cx="1013" cy="88" r="4" fill="#90ebfd" opacity="0.63"/><circle cx="1150" cy="399" r="1" fill="#90ebfd" opacity="0.15"/><circle cx="1288" cy="710" r="2" fill="#90ebfd" opacity="0.27"/><circle cx="1425" cy="121" r="3" fill="#90ebfd" opacity="0.39"/><circle cx="1563" cy="432" r="4" fill="#90ebfd" opacity="0.51"/><circle cx="100" cy="743" r="1" fill="#90ebfd" opacity="0.63"/><circle cx="238" cy="154" r="2" fill="#90ebfd" opacity="0.15"/><circle cx="375" cy="465" r="3" fill="#90ebfd" opacity="0.27"/><circle cx="513" cy="776" r="4" fill="#90ebfd" opacity="0.39"/><circle cx="650" cy="187" r="1" fill="#90ebfd" opacity="0.51"/><circle cx="788" cy="498" r="2" fill="#90ebfd" opacity="0.63"/><circle cx="925" cy="809" r="3" fill="#90ebfd" opacity="0.15"/><circle cx="1063" cy="220" r="4" fill="#90ebfd" opacity="0.27"/><circle cx="1200" cy="531" r="1" fill="#90ebfd" opacity="0.39"/><circle cx="1338" cy="842" r="2" fill="#90ebfd" opacity="0.51"/><circle cx="1475" cy="253" r="3" fill="#90ebfd" opacity="0.63"/><circle cx="13" cy="564" r="4" fill="#90ebfd" opacity="0.15"/><circle cx="150" cy="875" r="1" fill="#90ebfd" opacity="0.27"/><circle cx="288" cy="286" r="2" fill="#90ebfd" opacity="0.39"/><circle cx="425" cy="597" r="3" fill="#90ebfd" opacity="0.51"/><circle cx="563" cy="8" r="4" fill="#90ebfd" opacity="0.63"/><circle cx="700" cy="319" r="1" fill="#90ebfd" opacity="0.15"/><circle cx="838" cy="630" r="2" fill="#90ebfd" opacity="0.27"/><circle cx="975" cy="41" r="3" fill="#90ebfd" opacity="0.39"/><circle cx="1113" cy="352" r="4" fill="#90ebfd" opacity="0.51"/><circle cx="1250" cy="663" r="1" fill="#90ebfd" opacity="0.63"/><circle cx="1388" cy="74" r="2" fill="#90ebfd" opacity="0.15"/><circle cx="1525" cy="385" r="3" fill="#90ebfd" opacity="0.27"/><circle cx="63" cy="696" r="4" fill="#90ebfd" opacity="0.39"/><circle cx="200" cy="107" r="1" fill="#90ebfd" opacity="0.51"/><circle cx="338" cy="418" r="2" fill="#90ebfd" opacity="0.63"/><circle cx="475" cy="729" r="3" fill="#90ebfd" opacity="0.15"/><circle cx="613" cy="140" r="4" fill="#90ebfd" opacity="0.27"/><circle cx="750" cy="451" r="1" fill="#90ebfd" opacity="0.39"/><circle cx="888" cy="762" r="2" fill="#90ebfd" opacity="0.51"/><circle cx="1025" cy="173" r="3" fill="#90ebfd" opacity="0.63"/><circle cx="1163" cy="484" r="4" fill="#90ebfd" opacity="0.15"/><circle cx="1300" cy="795" r="1" fill="#90ebfd" opacity="0.27"/><circle cx="1438" cy="206" r="2" fill="#90ebfd" opacity="0.39"/><circle cx="1575" cy="517" r="3" fill="#90ebfd" opacity="0.51"/><circle cx="113" cy="828" r="4" fill="#90ebfd" opacity="0.63"/>
  <text x="60" y="80" font-family="monospace" font-size="26" fill="#39e0ff" opacity="0.8">DEPTH 2021m</text>
</svg>