<svg xmlns="http://www.w3.org/2000/svg" width="1600" height="900" viewBox="0 0 1600 900">
  <defs><linearGradient id="fg" x1="0" y1="0" x2="0" y2="1">
    <stop offset="0%" stop-color="#32608d"/><stop offset="100%" stop-color="#0d2c4b"/>
  </linearGradient></defs>
  <rect width="1600" height="900" fill="url(#fg)"/>
  <rect x="0" y="286" width="1600" height="80" fill="#afeffc" opacity="0.10"/>
  <circle cx="0" cy="326" r="1" fill="#afeffc" opacity="0.15"/><circle cx="138" cy="637" r="2" fill="#afeffc" opacity="0.27"/><circle cx="275" cy="48" r="3" fill="#afeffc" opacity="0.39"/><circle cx="413" cy="359" r="4" fill="#afeffc" opacity="0.51"/><circle cx="550" cy="670" r="1" fill="#afeffc" opacity="0.63"/><circle cx="688" cy="81" r="2" fill="#afeffc" opacity="0.15"/><circle cx="825" cy="392" r="3" fill="#afeffc" opacity="0.27"/><circle cx="963" cy="703" r="4" fill="#afeffc" opacity="0.39"/><circle cx="1100" cy="114" r="1" fill="#afeffc" opacity="0.51"/><circle cx="1238" cy="425" r="2" fill="#afeffc" opacity="0.63"/><circle cx="1375" cy="736" r="3" fill="#afeffc" opacity="0.15"/><circle cx="1513" cy="147" r="4" fill="#afeffc" opacity="0.27"/><circle cx="50" cy="458" r="1" fill="#afeffc" opacity="0.39"/><circle cx="188" cy="769" r="2" fill="#afeffc" opacity="0.51"/><circle cx="325" cy="180" r="3" fill="#afeffc" opacity="0.63"/><circle cx="463" cy="491" r="4" fill="#afeffc" opacity="0.15"/><circle cx="600" cy="802" r="1" fill="#afeffc" opacity="0.27"/><circle cx="738" cy="213" r="2" fill="#afeffc" opacity="0.39"/><circle cx="875" cy="524" r="3" fill="#afeffc" opacity="0.51"/><circle cx="1013" cy="835" r="4" fill="#afeffc" opacity="0.63"/><circle cx="1150" cy="246" r="1" fill="#afeffc" opacity="0.15"/><circle cx="1288" cy="557" r="2" fill="#afeffc" opacity="0.27"/><circle cx="1425" cy="868" r="3" fill="#afeffc" opacity="0.39"/><circle cx="1563" cy="279" r="4" fill="#afeffc" opacity="0.51"/><circle cx="100" cy="590" r="1" fill="#afeffc" opacity="0.63"/><circle cx="238" cy="1" r="2" fill="#afeffc" opacity="0.15"/><circle cx="375" cy="312" r="3" fill="#afeffc" opacity="0.27"/><circle cx="513" cy="623" r="4" fill="#afeffc" opacity="0.39"/><circle cx="650" cy="34" r="1" fill="#afeffc" opacity="0.51"/><circle cx="788" cy="345" r="2" fill="#afeffc" opacity="0.63"/><circle cx="925" cy="656" r="3" fill="#afeffc" opacity="0.15"/><circle cx="1063" cy="67" r="4" fill="#afeffc" opacity="0.27"/><circle cx="1200" cy="378" r="1" fill="#afeffc" opacity="0.39"/><circle cx="1338" cy="689" r="2" fill="#afeffc" opacity="0.51"/><circle cx="1475" cy="100" r="3" fill="#afeffc" opacity="0.63"/><circle cx="13" cy="411" r="4" fill="#afeffc" opacity="0.15"/><circle cx="150" cy="722" r="1" fill="#afeffc" opacity="0.27"/><circle cx="288" cy="133" r="2" fill="#afeffc" opacity="0.39"/><circle cx="425" cy="444" r="3" fill="#afeffc" opacity="0.51"/><circle cx="563" cy="755" r="4" fill="#afeffc" opacity="0.63"/><circle cx="700" cy="166" r="1" fill="#afeffc" opacity="0.15"/><circle cx="838" cy="477" r="2" fill="#afeffc" opacity="0.27"/><circle cx="975" cy="788" r="3" fill="#afeffc" opacity="0.39"/><circle cx="1113" cy="199" r="4" fill="#afeffc" opacity="0.51"/><circle cx="1250" cy="510" r="1" fill="#afeffc" opacity="0.63"/><circle cx="1388" cy="821" r="2" fill="#afeffc" opacity="0.15"/><circle cx="1525" cy="232" r="3" fill="#afeffc" opacity="0.27"/><circle cx="63" cy="543" r="4" fill="#afeffc" opacity="0.39"/><circle cx="200" cy="854" r="1" fill="#afeffc" opacity="0.51"/><circle cx="338" cy="265" r="2" fill="#afeffc" opacity="0.63"/><circle cx="475" cy="576" r="3" fill="#afeffc" opacity="0.15"/><circle cx="613" cy="887" r="4" fill="#afeffc" opacity="0.27"/><circle cx="750" cy="298" r="1" fill="#afeffc" opacity="0.39"/><circle cx="888" cy="609" r="2" fill="#afeffc" opacity="0.51"/><circle cx="1025" cy="20" r="3" fill="#afeffc" opacity="0.63"/><circle cx="1163" cy="331" r="4" fill="#afeffc" opacity="0.15"/><circle cx="1300" cy="642" r="1" fill="#afeffc" opacity="0.27"/><circle cx="1438" cy="53" r="2" fill="#afeffc" opacity="0.39"/><circle cx="1575" cy="364" r="3" fill="#afeffc" opacity="0.51"/><circle cx="113" cy="675" r="4" fill="#afeffc" opacity="0.63"/>
  <text x="60" y="80" font-family="monospace" font-size="26" fill="#39e0ff" opacity="0.8">DEPTH 1374m</text>
</svg>