<svg xmlns="http://www.w3.org/2000/svg" width="1600" height="900" viewBox="0 0 1600 900">
  <defs><linearGradient id="fg" x1="0" y1="0" x2="0" y2="1">
    <stop offset="0%" stop-color="#1f2429"/><stop offset="100%" stop-color="#010407"/>
  </linearGradient></defs>
  <rect width="1600" height="900" fill="url(#fg)"/>
  <rect x="0" y="860" width="1600" height="80" fill="#39e0ff" opacity="0.10"/>
  <circle cx="0" cy="0" r="1" fill="#39e0ff" opacity="0.15"/><circle cx="138" cy="311" r="2" fill="#39e0ff" opacity="0.27"/><circle cx="275" cy="622" r="3" fill="#39e0ff" opacity="0.39"/><circle cx="413" cy="33" r="4" fill="#39e0ff" opacity="0.51"/><circle cx="550" cy="344" r="1" fill="#39e0ff" opacity="0.63"/><circle cx="688" cy="655" r="2" fill="#39e0ff" opacity="0.15"/><circle cx="825" cy="66" r="3" fill="#39e0ff" opacity="0.27"/><circle cx="963" cy="377" r="4" fill="#39e0ff" opacity="0.39"/><circle cx="1100" cy="688" r="1" fill="#39e0ff" opacity="0.51"/><circle cx="1238" cy="99" r="2" fill="#39e0ff" opacity="0.63"/><circle cx="1375" cy="410" r="3" fill="#39e0ff" opacity="0.15"/><circle cx="1513" cy="721" r="4" fill="#39e0ff" opacity="0.27"/><circle cx="50" cy="132" r="1" fill="#39e0ff" opacity="0.39"/><circle cx="188" cy="443" r="2" fill="#39e0ff" opacity="0.51"/><circle cx="325" cy="754" r="3" fill="#39e0ff" opacity="0.63"/><circle cx="463" cy="165" r="4" fill="#39e0ff" opacity="0.15"/><circle cx="600" cy="476" r="1" fill="#39e0ff" opacity="0.27"/><circle cx="738" cy="787" r="2" fill="#39e0ff" opacity="0.39"/><circle cx="875" cy="198" r="3" fill="#39e0ff" opacity="0.51"/><circle cx="1013" cy="509" r="4" fill="#39e0ff" opacity="0.63"/><circle cx="1150" cy="820" r="1" fill="#39e0ff" opacity="0.15"/><circle cx="1288" cy="231" r="2" fill="#39e0ff" opacity="0.27"/><circle cx="1425" cy="542" r="3" fill="#39e0ff" opacity="0.39"/><circle cx="1563" cy="853" r="4" fill="#39e0ff" opacity="0.51"/><circle cx="100" cy="264" r="1" fill="#39e0ff" opacity="0.63"/><circle cx="238" cy="575" r="2" fill="#39e0ff" opacity="0.15"/><circle cx="375" cy="886" r="3" fill="#39e0ff" opacity="0.27"/><circle cx="513" cy="297" r="4" fill="#39e0ff" opacity="0.39"/><circle cx="650" cy="608" r="1" fill="#39e0ff" opacity="0.51"/><circle cx="788" cy="19" r="2" fill="#39e0ff" opacity="0.63"/><circle cx="925" cy="330" r="3" fill="#39e0ff" opacity="0.15"/><circle cx="1063" cy="641" r="4" fill="#39e0ff" opacity="0.27"/><circle cx="1200" cy="52" r="1" fill="#39e0ff" opacity="0.39"/><circle cx="1338" cy="363" r="2" fill="#39e0ff" opacity="0.51"/><circle cx="1475" cy="674" r="3" fill="#39e0ff" opacity="0.63"/><circle cx="13" cy="85" r="4" fill="#39e0ff" opacity="0.15"/><circle cx="150" cy="396" r="1" fill="#39e0ff" opacity="0.27"/><circle cx="288" cy="707" r="2" fill="#39e0ff" opacity="0.39"/><circle cx="425" cy="118" r="3" fill="#39e0ff" opacity="0.51"/><circle cx="563" cy="429" r="4" fill="#39e0ff" opacity="0.63"/><circle cx="700" cy="740" r="1" fill="#39e0ff" opacity="0.15"/><circle cx="838" cy="151" r="2" fill="#39e0ff" opacity="0.27"/><circle cx="975" cy="462" r="3" fill="#39e0ff" opacity="0.39"/><circle cx="1113" cy="773" r="4" fill="#39e0ff" opacity="0.51"/><circle cx="1250" cy="184" r="1" fill="#39e0ff" opacity="0.63"/><circle cx="1388" cy="495" r="2" fill="#39e0ff" opacity="0.15"/><circle cx="1525" cy="806" r="3" fill="#39e0ff" opacity="0.27"/><circle cx="63" cy="217" r="4" fill="#39e0ff" opacity="0.39"/><circle cx="200" cy="528" r="1" fill="#39e0ff" opacity="0.51"/><circle cx="338" cy="839" r="2" fill="#39e0ff" opacity="0.63"/><circle cx="475" cy="250" r="3" fill="#39e0ff" opacity="0.15"/><circle cx="613" cy="561" r="4" fill="#39e0ff" opacity="0.27"/><circle cx="750" cy="872" r="1" fill="#39e0ff" opacity="0.39"/><circle cx="888" cy="283" r="2" fill="#39e0ff" opacity="0.51"/><circle cx="1025" cy="594" r="3" fill="#39e0ff" opacity="0.63"/><circle cx="1163" cy="5" r="4" fill="#39e0ff" opacity="0.15"/><circle cx="1300" cy="316" r="1" fill="#39e0ff" opacity="0.27"/><circle cx="1438" cy="627" r="2" fill="#39e0ff" opacity="0.39"/><circle cx="1575" cy="38" r="3" fill="#39e0ff" opacity="0.51"/><circle cx="113" cy="349" r="4" fill="#39e0ff" opacity="0.63"/>
  <text x="60" y="80" font-family="monospace" font-size="26" fill="#39e0ff" opacity="0.8">DEPTH 3800m</text>
</svg>