<svg xmlns="http://www.w3.org/2000/svg" width="1600" height="900" viewBox="0 0 1600 900">
  <defs><linearGradient id="fg" x1="0" y1="0" x2="0" y2="1">
    <stop offset="0%" stop-color="#202832"/><stop offset="100%" stop-color="#01070d"/>
  </linearGradient></defs>
  <rect width="1600" height="900" fill="url(#fg)"/>
  <rect x="0" y="745" width="1600" height="80" fill="#50e3fe" opacity="0.10"/>
  <circle cx="0" cy="785" r="1" fill="#50e3fe" opacity="0.15"/><circle cx="138" cy="196" r="2" fill="#50e3fe" opacity="0.27"/><circle cx="275" cy="507" r="3" fill="#50e3fe" opacity="0.39"/><circle cx="413" cy="818" r="4" fill="#50e3fe" opacity="0.51"/><circle cx="550" cy="229" r="1" fill="#50e3fe" opacity="0.63"/><circle cx="688" cy="540" r="2" fill="#50e3fe" opacity="0.15"/><circle cx="825" cy="851" r="3" fill="#50e3fe" opacity="0.27"/><circle cx="963" cy="262" r="4" fill="#50e3fe" opacity="0.39"/><circle cx="1100" cy="573" r="1" fill="#50e3fe" opacity="0.51"/><circle cx="1238" cy="884" r="2" fill="#50e3fe" opacity="0.63"/><circle cx="1375" cy="295" r="3" fill="#50e3fe" opacity="0.15"/><circle cx="1513" cy="606" r="4" fill="#50e3fe" opacity="0.27"/><circle cx="50" cy="17" r="1" fill="#50e3fe" opacity="0.39"/><circle cx="188" cy="328" r="2" fill="#50e3fe" opacity="0.51"/><circle cx="325" cy="639" r="3" fill="#50e3fe" opacity="0.63"/><circle cx="463" cy="50" r="4" fill="#50e3fe" opacity="0.15"/><circle cx="600" cy="361" r="1" fill="#50e3fe" opacity="0.27"/><circle cx="738" cy="672" r="2" fill="#50e3fe" opacity="0.39"/><circle cx="875" cy="83" r="3" fill="#50e3fe" opacity="0.51"/><circle cx="1013" cy="394" r="4" fill="#50e3fe" opacity="0.63"/><circle cx="1150" cy="705" r="1" fill="#50e3fe" opacity="0.15"/><circle cx="1288" cy="116" r="2" fill="#50e3fe" opacity="0.27"/><circle cx="1425" cy="427" r="3" fill="#50e3fe" opacity="0.39"/><circle cx="1563" cy="738" r="4" fill="#50e3fe" opacity="0.51"/><circle cx="100" cy="149" r="1" fill="#50e3fe" opacity="0.63"/><circle cx="238" cy="460" r="2" fill="#50e3fe" opacity="0.15"/><circle cx="375" cy="771" r="3" fill="#50e3fe" opacity="0.27"/><circle cx="513" cy="182" r="4" fill="#50e3fe" opacity="0.39"/><circle cx="650" cy="493" r="1" fill="#50e3fe" opacity="0.51"/><circle cx="788" cy="804" r="2" fill="#50e3fe" opacity="0.63"/><circle cx="925" cy="215" r="3" fill="#50e3fe" opacity="0.15"/><circle cx="1063" cy="526" r="4" fill="#50e3fe" opacity="0.27"/><circle cx="1200" cy="837" r="1" fill="#50e3fe" opacity="0.39"/><circle cx="1338" cy="248" r="2" fill="#50e3fe" opacity="0.51"/><circle cx="1475" cy="559" r="3" fill="#50e3fe" opacity="0.63"/><circle cx="13" cy="870" r="4" fill="#50e3fe" opacity="0.15"/><circle cx="150" cy="281" r="1" fill="#50e3fe" opacity="0.27"/><circle cx="288" cy="592" r="2" fill="#50e3fe" opacity="0.39"/><circle cx="425" cy="3" r="3" fill="#50e3fe" opacity="0.51"/><circle cx="563" cy="314" r="4" fill="#50e3fe" opacity="0.63"/><circle cx="700" cy="625" r="1" fill="#50e3fe" opacity="0.15"/><circle cx="838" cy="36" r="2" fill="#50e3fe" opacity="0.27"/><circle cx="975" cy="347" r="3" fill="#50e3fe" opacity="0.39"/><circle cx="1113" cy="658" r="4" fill="#50e3fe" opacity="0.51"/><circle cx="1250" cy="69" r="1" fill="#50e3fe" opacity="0.63"/><circle cx="1388" cy="380" r="2" fill="#50e3fe" opacity="0.15"/><circle cx="1525" cy="691" r="3" fill="#50e3fe" opacity="0.27"/><circle cx="63" cy="102" r="4" fill="#50e3fe" opacity="0.39"/><circle cx="200" cy="413" r="1" fill="#50e3fe" opacity="0.51"/><circle cx="338" cy="724" r="2" fill="#50e3fe" opacity="0.63"/><circle cx="475" cy="135" r="3" fill="#50e3fe" opacity="0.15"/><circle cx="613" cy="446" r="4" fill="#50e3fe" opacity="0.27"/><circle cx="750" cy="757" r="1" fill="#50e3fe" opacity="0.39"/><circle cx="888" cy="168" r="2" fill="#50e3fe" opacity="0.51"/><circle cx="1025" cy="479" r="3" fill="#50e3fe" opacity="0.63"/><circle cx="1163" cy="790" r="4" fill="#50e3fe" opacity="0.15"/><circle cx="1300" cy="201" r="1" fill="#50e3fe" opacity="0.27"/><circle cx="1438" cy="512" r="2" fill="#50e3fe" opacity="0.39"/><circle cx="1575" cy="823" r="3" fill="#50e3fe" opacity="0.51"/><circle cx="113" cy="234" r="4" fill="#50e3fe" opacity="0.63"/>
  <text x="60" y="80" font-family="monospace" font-size="26" fill="#39e0ff" opacity="0.8">DEPTH 3315m</text>
</svg>